<?xml version="1.0" encoding="UTF-8"?>
<!-- Do not edit this file with editors other than draw.io -->
<!DOCTYPE svg PUBLIC "-//W3C//DTD SVG 1.1//EN" "http://www.w3.org/Graphics/SVG/1.1/DTD/svg11.dtd">
<svg xmlns="http://www.w3.org/2000/svg" xmlns:xlink="http://www.w3.org/1999/xlink" version="1.1" width="393px" height="282px" viewBox="-0.5 -0.5 393 282" content="&lt;mxfile host=&quot;app.diagrams.net&quot; modified=&quot;2023-06-05T19:33:49.540Z&quot; agent=&quot;Mozilla/5.0 (Windows NT 10.0; Win64; x64) AppleWebKit/537.36 (KHTML, like Gecko) Chrome/114.0.0.0 Safari/537.36&quot; etag=&quot;90ebANDX9gctg5W9YqDS&quot; version=&quot;21.3.5&quot; type=&quot;github&quot;&gt;&#10;  &lt;diagram name=&quot;Page-1&quot; id=&quot;vg-DC1rpJWw-zE1_29Qk&quot;&gt;&#10;    &lt;mxGraphModel dx=&quot;1434&quot; dy=&quot;788&quot; grid=&quot;1&quot; gridSize=&quot;10&quot; guides=&quot;1&quot; tooltips=&quot;1&quot; connect=&quot;1&quot; arrows=&quot;1&quot; fold=&quot;1&quot; page=&quot;1&quot; pageScale=&quot;1&quot; pageWidth=&quot;850&quot; pageHeight=&quot;1100&quot; math=&quot;0&quot; shadow=&quot;0&quot;&gt;&#10;      &lt;root&gt;&#10;        &lt;mxCell id=&quot;0&quot; /&gt;&#10;        &lt;mxCell id=&quot;1&quot; parent=&quot;0&quot; /&gt;&#10;        &lt;mxCell id=&quot;FHdMu2e8lHgWllfqxXzO-1&quot; value=&quot;&quot; style=&quot;verticalLabelPosition=bottom;html=1;verticalAlign=top;strokeWidth=1;align=center;outlineConnect=0;dashed=0;outlineConnect=0;shape=mxgraph.aws3d.elasticLoadBalancing;fillColor=#ECECEC;strokeColor=#5E5E5E;aspect=fixed;&quot; vertex=&quot;1&quot; parent=&quot;1&quot;&gt;&#10;          &lt;mxGeometry x=&quot;333&quot; y=&quot;680&quot; width=&quot;92&quot; height=&quot;88.17&quot; as=&quot;geometry&quot; /&gt;&#10;        &lt;/mxCell&gt;&#10;        &lt;mxCell id=&quot;FHdMu2e8lHgWllfqxXzO-2&quot; value=&quot;&quot; style=&quot;verticalLabelPosition=bottom;html=1;verticalAlign=top;strokeWidth=1;align=center;outlineConnect=0;dashed=0;outlineConnect=0;shape=mxgraph.aws3d.application;fillColor=#4286c5;strokeColor=#57A2D8;aspect=fixed;&quot; vertex=&quot;1&quot; parent=&quot;1&quot;&gt;&#10;          &lt;mxGeometry x=&quot;394&quot; y=&quot;560&quot; width=&quot;62&quot; height=&quot;68.8&quot; as=&quot;geometry&quot; /&gt;&#10;        &lt;/mxCell&gt;&#10;        &lt;mxCell id=&quot;FHdMu2e8lHgWllfqxXzO-3&quot; value=&quot;&quot; style=&quot;verticalLabelPosition=bottom;html=1;verticalAlign=top;strokeWidth=1;align=center;outlineConnect=0;dashed=0;outlineConnect=0;shape=mxgraph.aws3d.application2;fillColor=#86E83A;strokeColor=#B0F373;aspect=fixed;&quot; vertex=&quot;1&quot; parent=&quot;1&quot;&gt;&#10;          &lt;mxGeometry x=&quot;550&quot; y=&quot;680&quot; width=&quot;62&quot; height=&quot;53&quot; as=&quot;geometry&quot; /&gt;&#10;        &lt;/mxCell&gt;&#10;        &lt;mxCell id=&quot;FHdMu2e8lHgWllfqxXzO-4&quot; value=&quot;&quot; style=&quot;verticalLabelPosition=bottom;html=1;verticalAlign=top;strokeWidth=1;align=center;outlineConnect=0;dashed=0;outlineConnect=0;shape=mxgraph.aws3d.end_user;strokeColor=none;fillColor=#777777;aspect=fixed;&quot; vertex=&quot;1&quot; parent=&quot;1&quot;&gt;&#10;          &lt;mxGeometry x=&quot;220&quot; y=&quot;739.84&quot; width=&quot;49&quot; height=&quot;100.46&quot; as=&quot;geometry&quot; /&gt;&#10;        &lt;/mxCell&gt;&#10;        &lt;mxCell id=&quot;FHdMu2e8lHgWllfqxXzO-10&quot; value=&quot;&quot; style=&quot;verticalLabelPosition=bottom;html=1;verticalAlign=top;strokeWidth=1;align=center;outlineConnect=0;dashed=0;outlineConnect=0;shape=mxgraph.aws3d.dashedEdge2;strokeColor=#2D6195;aspect=fixed;&quot; vertex=&quot;1&quot; parent=&quot;1&quot;&gt;&#10;          &lt;mxGeometry x=&quot;460&quot; y=&quot;730&quot; width=&quot;111.6&quot; height=&quot;63.57&quot; as=&quot;geometry&quot; /&gt;&#10;        &lt;/mxCell&gt;&#10;        &lt;mxCell id=&quot;FHdMu2e8lHgWllfqxXzO-11&quot; value=&quot;&quot; style=&quot;verticalLabelPosition=bottom;html=1;verticalAlign=top;strokeWidth=1;align=center;outlineConnect=0;dashed=0;outlineConnect=0;shape=mxgraph.aws3d.dashedArrowlessEdge2;strokeColor=#2D6195;aspect=fixed;&quot; vertex=&quot;1&quot; parent=&quot;1&quot;&gt;&#10;          &lt;mxGeometry x=&quot;420&quot; y=&quot;768&quot; width=&quot;31.6&quot; height=&quot;18&quot; as=&quot;geometry&quot; /&gt;&#10;        &lt;/mxCell&gt;&#10;        &lt;mxCell id=&quot;FHdMu2e8lHgWllfqxXzO-12&quot; value=&quot;&quot; style=&quot;verticalLabelPosition=bottom;html=1;verticalAlign=top;strokeWidth=1;align=center;outlineConnect=0;dashed=0;outlineConnect=0;shape=mxgraph.aws3d.dashedArrowlessEdge2;strokeColor=#2D6195;aspect=fixed;&quot; vertex=&quot;1&quot; parent=&quot;1&quot;&gt;&#10;          &lt;mxGeometry x=&quot;301.4&quot; y=&quot;697.5&quot; width=&quot;31.6&quot; height=&quot;18&quot; as=&quot;geometry&quot; /&gt;&#10;        &lt;/mxCell&gt;&#10;        &lt;mxCell id=&quot;FHdMu2e8lHgWllfqxXzO-13&quot; value=&quot;&quot; style=&quot;verticalLabelPosition=bottom;html=1;verticalAlign=top;strokeWidth=1;align=center;outlineConnect=0;dashed=0;outlineConnect=0;shape=mxgraph.aws3d.dashedEdge2;strokeColor=#2D6195;aspect=fixed;&quot; vertex=&quot;1&quot; parent=&quot;1&quot;&gt;&#10;          &lt;mxGeometry x=&quot;290&quot; y=&quot;620&quot; width=&quot;111.6&quot; height=&quot;63.57&quot; as=&quot;geometry&quot; /&gt;&#10;        &lt;/mxCell&gt;&#10;        &lt;mxCell id=&quot;FHdMu2e8lHgWllfqxXzO-14&quot; value=&quot;&quot; style=&quot;verticalLabelPosition=bottom;html=1;verticalAlign=top;strokeWidth=1;align=center;outlineConnect=0;dashed=0;outlineConnect=0;shape=mxgraph.aws3d.flatEdge2;strokeColor=none;fillColor=#F4B934;aspect=fixed;&quot; vertex=&quot;1&quot; parent=&quot;1&quot;&gt;&#10;          &lt;mxGeometry x=&quot;260&quot; y=&quot;760&quot; width=&quot;84.39&quot; height=&quot;48.07&quot; as=&quot;geometry&quot; /&gt;&#10;        &lt;/mxCell&gt;&#10;      &lt;/root&gt;&#10;    &lt;/mxGraphModel&gt;&#10;  &lt;/diagram&gt;&#10;&lt;/mxfile&gt;&#10;" resource="https://app.diagrams.net/#HUNAHUR-OPE1%2Fblog%2Ffeature%252Fdocker-reverse-proxy%2Fassets%2Fimg%2F2023%2Fdocker-reverse-proxy%2Freverse-proxy.drawio.svg"><defs/><g><path d="M 113 190.5 L 113 137.5 L 143.5 120 L 174.5 120 L 205 137.5 L 205 190.5 L 174.5 208.17 L 143.5 208.17 Z" fill="#ececec" stroke="#292929" stroke-width="2" stroke-linejoin="round" stroke-miterlimit="10" pointer-events="all"/><path d="M 113 155.5 L 143.5 173 L 174.5 173 L 174.5 208.17 L 143.5 208.17 L 113 190.5 Z" fill-opacity="0.1" fill="#000000" stroke="none" pointer-events="all"/><path d="M 174.5 173 L 205 155.5 L 205 190.5 L 174.5 208.17 Z" fill-opacity="0.3" fill="#000000" stroke="none" pointer-events="all"/><path d="M 113 155.5 L 143.5 173 L 174.5 173 L 174.5 208.17 L 143.5 208.17 L 113 190.5 Z" fill="none" stroke="#5e5e5e" stroke-linejoin="round" stroke-miterlimit="10" pointer-events="all"/><path d="M 174.5 173 L 205 155.5 L 205 190.5 L 174.5 208.17 Z M 143.5 173 L 143.5 208.17" fill="none" stroke="#5e5e5e" stroke-linejoin="round" stroke-miterlimit="10" pointer-events="all"/><path d="M 144 132.3 C 148.63 130.87 153.82 130.24 159 130.5 C 164.9 130.78 170.5 132.18 175 134.5 C 182.22 137.59 186.97 142.52 188 148 C 188.71 151.76 186.57 155.5 182 158.5 C 177.91 160.99 173.28 162.46 168.5 162.8 C 163.29 163.38 157.95 163.04 153 161.8 C 147.7 160.78 142.93 158.81 139.2 156.1 C 135.65 153.53 133.17 150.4 132 147 C 130.81 143.56 132.05 140.03 135.5 137 C 137.69 135.06 140.6 133.45 144 132.3" fill="#5e5e5e" stroke="none" pointer-events="all"/><path d="M 139 152.8 L 146.3 148.5 L 150.3 150.7 L 154 143.4 L 151.5 143.3 L 156.5 138.8 L 153 137 L 160.3 132.7 L 166.7 136.6 L 159.4 140.7 L 157.6 139.6 L 158.7 143.7 L 155.6 143.5 L 152.6 149.5 L 158.5 146 L 156.8 145.2 L 163.7 143.2 L 161.4 141.8 L 168.6 137.6 L 175.2 141.2 L 168 145.5 L 165 143.8 L 161.7 148.2 L 159.8 146.9 L 154.8 149.9 L 164.8 148.4 L 164.5 146.6 L 171.2 147.3 L 169.7 146.4 L 177 142.3 L 183.6 145.9 L 176.2 150.2 L 172.7 148.3 L 165.5 151.2 L 165.2 149.7 L 152.5 151.9 L 155.7 153.8 L 148.5 157.9 Z" fill="#ececec" stroke="none" pointer-events="all"/><path d="M 113 190.5 L 113 137.5 L 143.5 120 L 174.5 120 L 205 137.5 L 205 190.5 L 174.5 208.17 L 143.5 208.17 Z" fill="none" stroke="#292929" stroke-width="2" stroke-linejoin="round" stroke-miterlimit="10" pointer-events="all"/><path d="M 174 17.5 L 205 0 L 236 17.5 L 236 51.5 L 205 68.8 L 174 51.5 Z" fill="#4286c5" stroke="#292929" stroke-width="2" stroke-linejoin="round" stroke-miterlimit="10" pointer-events="all"/><path d="M 174 17.5 L 205 34.5 L 205 68.8 L 174 51.5 Z" fill-opacity="0.1" fill="#000000" stroke="none" pointer-events="all"/><path d="M 205 34.5 L 236 17.5 L 236 51.5 L 205 68.8 Z" fill-opacity="0.3" fill="#000000" stroke="none" pointer-events="all"/><path d="M 174 17.5 L 205 34.5 L 205 68.8 L 174 51.5 Z" fill="none" stroke="#57a2d8" stroke-linejoin="round" stroke-miterlimit="10" pointer-events="all"/><path d="M 205 34.5 L 236 17.5 L 236 51.5 L 205 68.8 Z" fill="none" stroke="#57a2d8" stroke-linejoin="round" stroke-miterlimit="10" pointer-events="all"/><path d="M 215.5 6 L 221.3 9.2 L 190.5 26.71 L 190.5 37.2 L 184.8 34.08 L 184.8 23.8 Z M 227.5 12.7 L 197.5 29.8 L 197.5 40.9 L 191.7 37.8 L 191.7 27.2 L 222.6 9.9 Z" fill="#57a2d8" stroke="none" pointer-events="all"/><path d="M 174 17.5 L 205 0 L 236 17.5 L 236 51.5 L 205 68.8 L 174 51.5 Z" fill="none" stroke="#292929" stroke-width="2" stroke-linejoin="round" stroke-miterlimit="10" pointer-events="all"/><path d="M 330 155.86 L 330 137.34 L 361 120 L 392 137.34 L 392 155.86 L 361 173 Z" fill="#86e83a" stroke="#292929" stroke-width="1.98" stroke-linejoin="round" stroke-miterlimit="10" pointer-events="all"/><path d="M 330 137.34 L 361 154.18 L 361 173 L 330 155.86 Z" fill-opacity="0.1" fill="#000000" stroke="none" pointer-events="all"/><path d="M 361 154.18 L 392 137.34 L 392 155.86 L 361 173 Z" fill-opacity="0.3" fill="#000000" stroke="none" pointer-events="all"/><path d="M 330 137.34 L 361 154.18 L 361 173 L 330 155.86 Z" fill="none" stroke="#b0f373" stroke-width="0.99" stroke-linejoin="round" stroke-miterlimit="10" pointer-events="all"/><path d="M 361 154.18 L 392 137.34 L 392 155.86 L 361 173 Z" fill="none" stroke="#b0f373" stroke-width="0.99" stroke-linejoin="round" stroke-miterlimit="10" pointer-events="all"/><path d="M 340.8 153.68 L 340.8 143.28 L 371.7 125.94 L 377.5 129.21 L 346.5 146.45 L 346.5 156.65 Z M 347.8 157.55 L 347.8 147.24 L 378.5 129.91 L 383.5 132.58 L 353.5 149.82 L 353.5 160.32 Z" fill="#b0f373" stroke="none" pointer-events="all"/><path d="M 330 155.86 L 330 137.34 L 361 120 L 392 137.34 L 392 155.86 L 361 173 Z" fill="none" stroke="#292929" stroke-width="1.98" stroke-linejoin="round" stroke-miterlimit="10" pointer-events="all"/><path d="M 10.5 191 C 10.9 187.41 12.2 184.25 14.1 182.3 C 16.77 180.08 20.57 179.84 23.5 181.7 C 26.53 183.34 29.18 185.59 31.3 188.3 C 34.27 192.07 36.29 196.49 37.2 201.2 C 38.36 205.27 38.46 209.58 37.5 213.7 C 36.99 216.06 35.64 218.16 33.7 219.6 C 31.38 220.81 28.62 220.81 26.3 219.6 C 22.54 217.99 19.36 215.27 17.2 211.8 C 14.89 208.72 13.19 205.22 12.2 201.5 C 10.89 198.16 10.31 194.58 10.5 191 Z M 0 251.8 L 0 226.5 C 0.24 223.66 1.48 221.01 3.5 219 C 6.32 216.89 10.11 216.62 13.2 218.3 L 34.8 230.6 C 38.47 232.92 41.47 236.16 43.5 240 C 46.09 244.26 47.94 248.93 49 253.8 L 49 280.3 L 39.9 274.9 L 39.9 258.3 L 36.8 256.6 L 36.8 273.2 L 12.3 258.9 L 12.3 242.5 L 9.2 240.7 L 9.2 257.2 Z" fill="#777777" stroke="none" pointer-events="all"/><path d="M 330.6 175.5 L 351.6 170 L 341.9 182.2" fill="#2d6195" stroke="none" pointer-events="all"/><path d="M 343.93 174.43 L 240 233.57" fill="none" stroke="#2d6195" stroke-width="4" stroke-linecap="round" stroke-miterlimit="10" stroke-dasharray="12 12" pointer-events="all"/><path d="M 200 208 L 231.6 226" fill="none" stroke="#2d6195" stroke-width="4" stroke-linecap="round" stroke-miterlimit="10" stroke-dasharray="12 12" pointer-events="all"/><path d="M 81.4 137.5 L 113 155.5" fill="none" stroke="#2d6195" stroke-width="4" stroke-linecap="round" stroke-miterlimit="10" stroke-dasharray="12 12" pointer-events="all"/><path d="M 160.6 65.5 L 181.6 60 L 171.9 72.2" fill="#2d6195" stroke="none" pointer-events="all"/><path d="M 173.93 64.42 L 70 123.57" fill="none" stroke="#2d6195" stroke-width="4" stroke-linecap="round" stroke-miterlimit="10" stroke-dasharray="12 12" pointer-events="all"/><path d="M 78.39 208.8 L 63.19 200 L 124.39 200 L 124.39 235.5 L 108.99 226.5 L 70.7 248.07 L 40 230.37 Z" fill="#f4b934" stroke="none" pointer-events="all"/></g></svg>