<?xml version="1.0" standalone="no"?>
<!DOCTYPE svg PUBLIC "-//W3C//DTD SVG 20010904//EN"
 "http://www.w3.org/TR/2001/REC-SVG-20010904/DTD/svg10.dtd">
<svg version="1.0" xmlns="http://www.w3.org/2000/svg"
 width="622.000000pt" height="622.000000pt" viewBox="0 0 622.000000 622.000000"
 preserveAspectRatio="xMidYMid meet">
<metadata>
Created by potrace 1.14, written by Peter Selinger 2001-2017
</metadata>
<g transform="translate(0.000000,622.000000) scale(0.100000,-0.100000)"
fill="#000000" stroke="none">
<path d="M2909 6216 c-2 -2 -38 -6 -79 -10 -78 -6 -115 -10 -190 -22 -25 -4
-49 -8 -55 -8 -29 -4 -106 -19 -155 -31 -30 -8 -66 -16 -80 -18 -14 -3 -57
-15 -95 -27 -39 -12 -77 -23 -85 -25 -8 -2 -64 -21 -125 -43 -255 -92 -552
-248 -754 -399 -182 -134 -398 -331 -522 -477 -19 -22 -48 -56 -65 -75 -166
-194 -378 -550 -474 -796 -17 -44 -35 -89 -40 -100 -21 -48 -101 -316 -114
-385 -9 -47 -26 -135 -31 -160 -3 -14 -8 -47 -11 -75 -4 -27 -8 -52 -9 -55
-25 -43 -25 -757 -1 -800 2 -3 6 -27 10 -55 39 -320 176 -726 351 -1045 82
-149 287 -448 339 -495 6 -5 24 -26 40 -45 32 -40 147 -158 233 -241 125 -120
379 -311 508 -383 17 -9 46 -26 65 -38 79 -47 297 -151 406 -194 225 -87 480
-154 679 -180 28 -3 59 -8 70 -10 118 -25 640 -25 771 0 11 2 46 7 79 11 32 3
62 8 65 10 3 2 26 6 50 10 75 11 309 72 415 108 292 100 551 232 790 401 77
54 248 189 281 221 12 11 45 43 75 71 379 358 665 816 827 1324 30 94 68 244
78 308 3 18 12 56 20 85 41 139 42 160 39 495 -2 180 -5 338 -9 352 -3 14 -7
43 -10 65 -11 98 -18 145 -32 210 -8 39 -14 111 -14 162 0 89 -1 92 -26 105
-21 11 -32 32 -60 118 -18 58 -38 114 -43 125 -5 11 -19 47 -31 80 -30 80
-158 336 -211 422 -324 525 -749 919 -1279 1184 -321 160 -668 266 -1005 305
-33 3 -69 9 -80 11 -23 5 -501 13 -506 9z"/>
</g>
</svg>
